<?xml version="1.0" standalone="no"?>
<!DOCTYPE svg PUBLIC "-//W3C//DTD SVG 20010904//EN"
 "http://www.w3.org/TR/2001/REC-SVG-20010904/DTD/svg10.dtd">
<svg version="1.0" xmlns="http://www.w3.org/2000/svg"
 width="578.000000pt" height="592.000000pt" viewBox="0 0 578.000000 592.000000"
 preserveAspectRatio="xMidYMid meet">

<g transform="translate(0.000000,592.000000) scale(0.100000,-0.100000)"
fill="#000000" stroke="none">
<path d="M0 2960 l0 -2960 2890 0 2890 0 0 2960 0 2960 -2890 0 -2890 0 0
-2960z m3171 2435 c195 -20 320 -47 519 -112 690 -224 1247 -740 1529 -1416
81 -194 125 -354 163 -580 31 -190 31 -553 0 -746 -114 -696 -488 -1290 -1062
-1685 -237 -163 -490 -278 -780 -355 -873 -230 -1804 35 -2438 694 -356 370
-586 841 -668 1375 -25 161 -25 529 0 690 128 827 622 1517 1346 1879 442 221
911 307 1391 256z"/>
<path d="M1761 3966 c-10 -12 -5 -37 22 -123 19 -59 43 -143 52 -185 9 -42 23
-82 31 -89 21 -17 64 -3 64 21 0 22 71 202 77 196 2 -1 10 -39 18 -82 23 -119
33 -143 62 -150 13 -4 29 -2 34 3 12 12 119 266 143 341 14 42 15 56 6 67 -30
36 -66 6 -84 -69 -4 -16 -24 -72 -44 -125 l-36 -95 -12 49 c-7 26 -18 88 -25
137 -12 88 -26 118 -55 118 -22 0 -51 -56 -85 -165 -36 -113 -32 -115 -74 40
-14 55 -31 105 -37 112 -14 17 -43 16 -57 -1z"/>
<path d="M2514 3961 c-85 -39 -148 -168 -130 -266 22 -113 180 -171 284 -103
83 56 130 224 84 308 -38 71 -151 100 -238 61z m164 -75 c12 -12 17 -34 17
-79 0 -76 -36 -147 -85 -167 -41 -17 -98 -6 -129 24 -49 50 -19 182 52 227 39
24 119 21 145 -5z"/>
<path d="M2902 3967 c-9 -11 -12 -64 -10 -203 3 -178 4 -189 22 -192 31 -6 46
24 39 79 -3 27 -3 49 1 49 17 0 106 -52 145 -84 47 -40 62 -43 81 -21 19 22
-2 56 -58 96 l-45 32 35 18 c123 63 28 221 -141 236 -43 4 -60 2 -69 -10z
m128 -73 c48 -19 76 -62 57 -87 -16 -21 -60 -37 -103 -37 l-34 0 0 70 c0 80 6
84 80 54z"/>
<path d="M3313 3968 c-6 -7 -13 -95 -16 -195 -7 -205 -5 -213 60 -213 47 0
163 20 186 32 20 10 23 56 4 64 -7 2 -42 -2 -78 -11 -114 -27 -105 -41 -104
158 0 167 -1 172 -21 175 -11 2 -25 -3 -31 -10z"/>
<path d="M3692 3968 c-8 -8 -12 -67 -12 -199 l0 -187 47 -16 c142 -49 273 27
273 158 0 96 -47 152 -178 213 -101 47 -112 49 -130 31z m146 -117 c92 -47
119 -130 63 -193 -26 -29 -34 -32 -87 -33 l-59 0 -3 132 -3 133 25 -10 c14 -5
43 -18 64 -29z"/>
<path d="M2382 3222 c-4 -10 -7 -99 -7 -199 0 -176 1 -183 23 -205 19 -20 35
-23 111 -26 100 -4 134 7 129 41 -3 21 -9 22 -100 25 l-98 3 0 58 0 59 96 8
c105 10 132 25 104 59 -12 15 -26 16 -102 10 l-88 -7 0 56 c0 66 6 70 124 65
l81 -4 3 27 c5 39 -27 49 -159 47 -91 -1 -111 -4 -117 -17z"/>
<path d="M4778 3221 c-143 -20 -260 -239 -185 -348 46 -69 139 -80 220 -27 46
30 55 50 33 72 -15 16 -20 15 -65 -11 -58 -32 -94 -34 -121 -7 -41 41 -15 141
56 214 39 40 73 46 92 15 21 -33 56 -21 60 20 5 49 -5 81 -26 80 -9 -1 -38 -5
-64 -8z"/>
<path d="M525 3196 c-8 -13 -22 -56 -30 -97 -8 -41 -23 -105 -35 -144 -11 -38
-20 -84 -20 -101 0 -38 24 -62 48 -48 18 12 22 24 47 137 9 43 19 76 21 74 2
-2 13 -39 25 -83 30 -116 55 -146 92 -109 9 8 30 58 47 110 18 53 34 95 35 93
2 -2 11 -39 20 -83 22 -106 39 -145 63 -145 39 0 44 23 22 101 -11 41 -29 123
-39 182 -21 116 -32 140 -65 135 -22 -3 -27 -15 -71 -160 -14 -49 -29 -88 -34
-88 -5 0 -16 42 -26 93 -23 119 -38 157 -64 157 -11 0 -27 -11 -36 -24z"/>
<path d="M1434 3206 c-15 -39 -1 -51 63 -54 l61 -3 6 -72 c3 -40 8 -111 10
-158 4 -96 8 -109 37 -109 28 0 40 41 34 114 -2 33 -7 98 -10 144 l-6 83 78
-3 78 -3 0 35 0 35 -173 3 c-144 2 -173 0 -178 -12z"/>
<path d="M1914 3209 c-12 -20 -23 -372 -11 -387 6 -7 20 -12 31 -10 18 3 22
13 29 68 4 35 10 66 12 69 6 5 143 30 173 30 21 1 22 -3 22 -73 0 -78 12 -101
47 -94 16 3 19 21 24 198 6 196 4 209 -29 210 -20 0 -42 -63 -42 -118 l0 -49
-77 -11 c-43 -7 -88 -15 -100 -18 -22 -6 -22 -4 -25 92 -3 93 -4 99 -25 102
-11 2 -24 -2 -29 -9z"/>
<path d="M2856 3197 c-9 -12 -22 -54 -30 -93 -8 -39 -24 -104 -36 -145 -27
-98 -27 -146 1 -154 32 -11 44 10 69 120 l23 100 15 -50 c7 -27 20 -73 28
-102 11 -36 21 -54 36 -59 31 -9 52 20 87 120 17 50 33 91 34 93 2 2 13 -43
25 -99 24 -108 34 -128 63 -128 33 0 38 29 18 99 -11 36 -28 117 -39 180 -11
62 -25 119 -31 127 -24 29 -60 13 -72 -31 -23 -88 -61 -205 -67 -205 -4 0 -18
48 -30 108 -12 59 -27 115 -32 125 -12 24 -45 21 -62 -6z"/>
<path d="M3759 3204 c-24 -29 1 -49 70 -52 l61 -3 1 -57 c4 -172 14 -265 31
-275 12 -8 21 -7 34 3 15 13 16 30 10 173 l-7 158 72 -3 c59 -2 73 0 83 15 8
12 8 22 0 35 -10 15 -32 17 -176 20 -142 2 -167 0 -179 -14z"/>
<path d="M4210 3205 c-21 -25 -1 -49 44 -53 l36 -3 0 -129 0 -129 -36 -3 c-44
-4 -65 -29 -48 -55 10 -16 25 -18 125 -15 123 4 149 15 128 53 -7 14 -21 19
-54 19 l-45 0 0 130 0 130 44 0 c53 0 78 22 54 47 -12 11 -45 17 -125 20 -94
5 -110 3 -123 -12z"/>
<path d="M1167 3158 c-18 -24 -53 -74 -77 -113 -24 -38 -49 -74 -56 -78 -8 -4
-14 -14 -14 -21 0 -8 -9 -33 -19 -57 -37 -82 22 -112 66 -34 12 22 24 43 25
47 2 4 30 11 63 14 l60 6 22 -51 c24 -57 46 -72 71 -47 15 15 15 19 -1 63 -9
27 -28 102 -42 167 -24 113 -37 146 -56 146 -4 0 -23 -19 -42 -42z m32 -145
c1 -13 -5 -23 -11 -23 -7 0 -23 -3 -35 -6 -23 -6 -23 -6 4 42 23 40 28 44 34
28 4 -10 8 -29 8 -41z"/>
<path d="M3451 3093 c-39 -60 -77 -115 -86 -124 -8 -9 -15 -21 -15 -27 0 -6
-10 -32 -22 -56 -18 -37 -19 -47 -8 -60 24 -30 48 -19 74 33 25 49 25 49 86
56 34 4 63 6 64 4 2 -2 13 -25 24 -52 24 -53 46 -67 69 -44 15 14 15 20 0 59
-8 24 -28 99 -43 168 -27 128 -36 150 -60 150 -7 0 -45 -48 -83 -107z m78 -84
c1 -11 -10 -19 -31 -23 -17 -3 -32 -5 -34 -4 -1 2 10 23 24 47 25 43 27 44 33
20 4 -13 7 -31 8 -40z"/>
<path d="M5163 3163 c-16 -21 -52 -73 -79 -117 -27 -43 -55 -81 -61 -83 -7 -3
-13 -15 -13 -27 -1 -11 -7 -32 -15 -46 -21 -37 -19 -68 5 -75 26 -8 42 4 66
54 16 34 24 40 63 45 77 10 79 10 102 -44 12 -28 30 -52 41 -56 41 -13 42 10
10 143 -17 70 -34 146 -38 168 -14 85 -37 95 -81 38z m30 -139 c6 -30 4 -32
-26 -37 -18 -2 -33 -3 -35 -2 -2 2 7 21 20 44 25 44 32 43 41 -5z"/>
<path d="M2470 2415 c0 -13 57 -15 450 -15 393 0 450 2 450 15 0 13 -57 15
-450 15 -393 0 -450 -2 -450 -15z"/>
<path d="M1790 1550 l0 -750 200 0 c187 0 201 1 220 20 23 23 26 35 8 24 -10
-5 -10 -4 -1 6 16 17 33 4 33 -26 l0 -24 900 0 900 0 0 750 0 750 -1130 0
-1130 0 0 -750z m1950 707 c0 -9 -32 -115 -40 -132 -5 -11 -30 -67 -56 -125
-25 -57 -52 -113 -60 -124 -8 -11 -14 -42 -14 -68 l0 -48 65 0 65 0 0 65 0 65
-47 2 -48 2 48 3 47 4 2 47 1 47 6 -45 6 -45 63 -3 62 -3 2 48 1 48 6 -45 6
-45 60 -6 60 -6 -62 -1 -63 -2 -2 -37 -1 -38 -4 38 -4 37 -65 0 -64 0 0 -65
c0 -75 17 -88 40 -30 9 22 20 35 32 35 20 0 25 -20 6 -20 -7 0 -5 -5 6 -11 14
-9 16 -13 5 -20 -7 -4 -10 -12 -5 -16 4 -4 19 5 32 21 14 15 28 26 31 22 3 -3
-2 -15 -12 -26 -18 -20 -16 -21 30 -9 6 1 18 -1 28 -6 9 -4 33 -5 52 -3 19 2
35 0 35 -5 0 -5 -23 -7 -52 -6 -33 2 -53 -1 -56 -9 -2 -7 -9 -12 -15 -12 -7
-1 -30 -19 -52 -40 -54 -54 -59 -40 -5 15 37 37 41 45 24 45 -11 0 -35 -16
-52 -36 -18 -20 -35 -34 -38 -31 -11 11 7 45 29 53 15 5 -7 9 -68 11 -114 5
-135 0 -135 -31 0 -21 8 -26 53 -37 72 -19 71 -19 78 26 l6 40 2 -40 c3 -59
29 -85 86 -85 25 0 44 3 41 8 -10 17 10 75 27 78 9 1 17 -2 17 -7 0 -5 20 -9
45 -9 33 0 45 -4 45 -15 0 -11 -11 -15 -40 -15 -27 0 -47 -7 -61 -21 l-21 -21
71 4 c39 1 71 0 71 -4 0 -7 -216 -14 -244 -9 -24 5 -56 -11 -56 -27 0 -15 2
-15 10 -2 8 12 10 11 10 -7 0 -13 5 -23 10 -23 6 0 10 -7 10 -15 0 -8 -4 -15
-9 -15 -5 0 -12 -8 -14 -17 -3 -13 -5 -12 -6 5 0 13 -5 20 -11 17 -5 -3 -15 3
-22 14 -12 20 -13 20 -45 -11 -18 -18 -33 -35 -33 -40 0 -4 88 -7 196 -7 108
0 199 -2 202 -5 3 -4 -90 -6 -207 -6 -202 0 -213 -1 -241 -22 -32 -23 -40 -41
-15 -32 21 8 19 -9 -4 -34 -25 -29 -34 -28 -28 4 4 24 3 24 -35 -13 l-39 -38
207 -3 c159 -2 210 1 217 10 7 10 10 10 14 1 2 -7 20 -13 39 -13 19 0 34 -4
34 -10 0 -12 20 -11 -279 -10 -216 1 -243 -1 -238 -14 9 -24 -3 -46 -25 -46
-16 0 -19 5 -16 25 4 17 2 23 -6 17 -195 -147 -313 -237 -319 -242 -5 -4 -1
-15 9 -24 9 -9 14 -19 12 -22 -3 -2 -11 2 -18 11 -19 22 -28 19 -89 -31 -32
-27 -57 -41 -59 -34 -4 12 13 35 26 35 4 0 26 14 49 30 33 23 41 35 36 50 -5
17 -3 18 9 8 12 -10 42 8 174 108 87 66 165 130 171 142 9 15 13 82 13 219 0
195 0 197 -22 204 -13 4 -53 34 -90 67 -57 50 -70 58 -83 47 -10 -8 -29 -10
-54 -6 -36 5 -42 3 -61 -25 -12 -16 -19 -33 -16 -37 4 -3 11 0 15 7 6 9 11 10
15 2 4 -6 29 -11 56 -11 33 0 50 -5 53 -15 8 -19 2 -22 -68 -25 -33 -1 -70 -3
-83 -4 -26 -3 -37 -24 -92 -171 -37 -101 -45 -114 -60 -99 -21 21 84 276 153
373 l34 47 -61 -7 c-34 -3 -71 -11 -83 -17 -30 -16 -33 -15 -33 11 0 21 4 22
90 23 85 1 91 2 111 27 25 33 71 36 92 7 13 -18 21 -20 86 -14 39 4 71 11 71
15 0 10 31 12 53 3 19 -7 10 -54 -11 -54 -8 0 -23 6 -31 14 -12 10 -32 12 -80
7 l-65 -6 65 -56 c87 -76 99 -79 99 -29 0 22 5 40 10 40 10 0 13 -14 13 -62 0
-18 5 -28 14 -28 8 0 11 5 7 12 -5 8 0 9 15 5 45 -12 128 109 212 310 27 65
54 128 59 141 8 18 30 32 30 19z m-1865 -58 c2 -8 -5 -15 -15 -15 -12 0 -15 6
-12 19 5 21 24 18 27 -4z m2090 -18 c-2 -5 -14 -11 -25 -14 -14 -4 -20 0 -20
12 0 10 3 21 6 24 9 9 46 -12 39 -22z m-110 -141 c3 -5 1 -10 -4 -10 -6 0 -11
5 -11 10 0 6 2 10 4 10 3 0 8 -4 11 -10z m132 -182 c-2 -24 -4 -5 -4 42 0 47
2 66 4 43 2 -24 2 -62 0 -85z m0 -70 c-3 -8 -6 -5 -6 6 -1 11 2 17 5 13 3 -3
4 -12 1 -19z m-1009 -15 c-3 -19 -53 -29 -63 -12 -11 16 5 29 36 29 24 0 30
-4 27 -17z m326 -9 c3 -8 2 -12 -4 -9 -6 4 -10 -20 -10 -64 l0 -71 43 -2 42
-1 -42 -4 -43 -4 0 -64 0 -64 43 -4 c23 -2 -11 -4 -75 -5 l-118 -2 0 75 0 75
71 0 71 0 -4 80 c-2 56 0 80 8 80 7 0 15 -7 18 -16z m-49 -4 c-3 -5 -11 -10
-16 -10 -6 0 -7 5 -4 10 3 6 11 10 16 10 6 0 7 -4 4 -10z m-35 -10 c0 -5 -5
-10 -11 -10 -5 0 -7 5 -4 10 3 6 8 10 11 10 2 0 4 -4 4 -10z m-30 -20 c0 -5
-4 -10 -10 -10 -5 0 -10 5 -10 10 0 6 5 10 10 10 6 0 10 -4 10 -10z m461 -17
c23 -15 36 -29 31 -31 -6 -2 -21 6 -34 17 -12 12 -28 21 -35 21 -7 0 -13 5
-13 10 0 15 6 13 51 -17z m-506 -9 c-11 -8 -28 -21 -38 -30 -11 -8 -22 -13
-25 -9 -4 4 0 10 8 15 8 5 24 16 35 24 11 8 25 15 30 15 6 0 1 -6 -10 -15z
m-1222 -103 c21 -60 21 -67 2 -51 -13 11 -15 -23 -15 -300 l0 -313 130 129
c108 107 128 131 116 140 -13 9 -5 16 42 37 l57 26 353 1 352 1 0 85 c0 59 -4
84 -12 84 -9 0 -9 3 0 12 7 7 12 35 13 62 0 28 3 44 6 36 3 -8 11 -18 17 -22
8 -5 7 -11 -2 -20 -9 -9 -12 -61 -12 -187 0 -135 -3 -172 -12 -163 -14 14 -18
52 -6 52 4 0 8 10 7 23 0 21 -1 21 -9 2 -5 -11 -9 -16 -9 -11 -1 5 -12 -1 -26
-14 -13 -12 -22 -28 -18 -34 3 -6 2 -7 -2 -3 -5 4 -71 -54 -146 -129 -109
-109 -147 -140 -185 -154 -27 -10 -58 -21 -69 -25 -16 -7 -18 -6 -7 6 6 7 12
17 12 21 0 4 -137 8 -305 8 -237 0 -305 3 -305 13 0 6 0 156 0 332 0 252 -2
317 -12 307 -24 -24 -25 -11 -5 43 11 30 23 55 26 55 3 0 14 -22 24 -49z
m1147 39 c0 -5 -4 -10 -10 -10 -5 0 -10 5 -10 10 0 6 5 10 10 10 6 0 10 -4 10
-10z m-20 -24 c0 -3 -4 -8 -10 -11 -5 -3 -10 -1 -10 4 0 6 5 11 10 11 6 0 10
-2 10 -4z m-25 -36 c-3 -5 -11 -10 -16 -10 -6 0 -7 5 -4 10 3 6 11 10 16 10 6
0 7 -4 4 -10z m760 0 c3 -5 2 -10 -4 -10 -5 0 -13 5 -16 10 -3 6 -2 10 4 10 5
0 13 -4 16 -10z m-1520 -20 c-3 -5 -14 -10 -23 -10 -15 0 -15 2 -2 10 20 13
33 13 25 0z m145 0 c0 -5 -4 -10 -10 -10 -5 0 -10 5 -10 10 0 6 5 10 10 10 6
0 10 -4 10 -10z m145 0 c3 -5 -1 -10 -9 -10 -8 0 -18 5 -21 10 -3 6 1 10 9 10
8 0 18 -4 21 -10z m70 0 c-28 -12 -37 -12 -30 0 3 6 16 10 28 9 21 0 21 -1 2
-9z m50 0 c3 -5 2 -10 -4 -10 -5 0 -13 5 -16 10 -3 6 -2 10 4 10 5 0 13 -4 16
-10z m160 0 c-3 -5 -18 -10 -33 -9 -24 0 -25 1 -7 9 28 12 47 12 40 0z m165
-10 c0 -5 -5 -10 -11 -10 -5 0 -7 5 -4 10 3 6 8 10 11 10 2 0 4 -4 4 -10z
m820 -49 c-1 -13 -30 34 -30 48 0 9 7 3 15 -13 8 -15 15 -31 15 -35z m-1630
19 c0 -5 -5 -10 -11 -10 -5 0 -7 5 -4 10 3 6 8 10 11 10 2 0 4 -4 4 -10z m408
-97 c-13 -36 -14 -49 -5 -55 15 -9 17 -9 -65 -14 -62 -4 -68 -2 -68 15 0 10
11 26 25 35 14 9 25 23 25 31 0 18 -27 20 -33 3 -2 -7 -8 -10 -12 -6 -14 14 4
38 29 38 38 0 50 -32 25 -64 -11 -14 -16 -26 -11 -26 6 0 17 -3 25 -6 11 -4
16 6 21 40 8 52 32 84 50 66 8 -8 6 -24 -6 -57z m-250 14 c3 -24 -2 -30 -27
-40 -19 -7 -31 -18 -31 -29 0 -10 -7 -18 -15 -18 -12 0 -15 13 -15 61 l0 60
43 -3 c38 -3 42 -6 45 -31z m428 18 c4 -9 13 -14 22 -13 10 2 18 -7 22 -22 l6
-25 8 23 c4 12 14 22 22 22 8 0 14 -10 15 -22 l0 -23 11 23 c6 12 15 22 20 22
10 0 10 -7 -3 -53 -11 -42 -30 -45 -40 -6 l-6 24 -8 -27 c-10 -39 -33 -35 -41
7 -8 44 -14 47 -41 18 -21 -22 -21 -23 -3 -23 35 0 22 -26 -14 -28 -47 -3 -53
13 -17 47 34 31 40 51 16 51 -8 0 -15 -4 -15 -10 0 -5 -7 -10 -15 -10 -13 0
-14 4 -5 20 13 24 58 27 66 5z m1061 -17 c-3 -8 -6 -5 -6 6 -1 11 2 17 5 13 3
-3 4 -12 1 -19z m-1717 3 c0 -5 9 -11 20 -14 16 -4 20 -13 19 -44 -1 -54 -13
-88 -29 -88 -8 0 -17 11 -20 25 l-6 25 -7 -28 c-10 -38 -29 -30 -45 19 -18 52
-22 96 -7 84 7 -6 15 -6 21 0 7 7 9 -4 7 -32 l-3 -43 20 25 c13 15 19 36 17
53 -2 15 0 27 5 27 4 0 8 -4 8 -9z m-119 -44 c6 -24 4 -27 -17 -27 -15 0 -24
6 -24 15 0 8 5 15 10 15 6 0 10 5 10 11 0 5 -5 7 -12 3 -7 -4 -8 -3 -4 5 12
18 29 8 37 -22z m664 23 c-3 -6 1 -13 9 -16 20 -8 21 -24 1 -24 -8 0 -15 -7
-15 -15 0 -8 -4 -15 -10 -15 -5 0 -10 5 -10 11 0 7 -8 18 -17 25 -17 13 -17
13 0 14 9 0 17 7 17 15 0 8 7 15 16 15 8 0 12 -5 9 -10z m282 -12 c-3 -8 -6
-5 -6 6 -1 11 2 17 5 13 3 -3 4 -12 1 -19z m-497 2 c0 -5 -18 -10 -39 -10 -22
0 -43 5 -46 10 -4 6 12 10 39 10 25 0 46 -4 46 -10z m1400 0 c0 -5 -2 -10 -4
-10 -3 0 -8 5 -11 10 -3 6 -1 10 4 10 6 0 11 -4 11 -10z m-1412 -29 c6 0 12
-5 12 -11 0 -13 -77 -13 -84 -1 -7 11 12 19 39 16 11 -1 26 -3 33 -4z m512 -1
c0 -5 -4 -10 -10 -10 -5 0 -10 5 -10 10 0 6 5 10 10 10 6 0 10 -4 10 -10z
m905 1 c3 -5 1 -12 -5 -16 -5 -3 -10 1 -10 9 0 18 6 21 15 7z m-495 -41 c0
-19 -5 -30 -14 -30 -19 0 -29 30 -15 46 18 22 29 16 29 -16z m-423 -2 c-3 -8
-6 -5 -6 6 -1 11 2 17 5 13 3 -3 4 -12 1 -19z m1079 -1 c4 -4 2 -7 -4 -7 -6 0
-14 -9 -17 -21 -8 -25 -17 -18 -21 16 -2 19 2 24 16 22 11 -2 23 -6 26 -10z
m-1079 -39 c-3 -8 -6 -5 -6 6 -1 11 2 17 5 13 3 -3 4 -12 1 -19z m923 -12 c0
-3 -4 -8 -10 -11 -5 -3 -10 -1 -10 4 0 6 5 11 10 11 6 0 10 -2 10 -4z m-1670
-26 c0 -5 -2 -10 -4 -10 -3 0 -8 5 -11 10 -3 6 -1 10 4 10 6 0 11 -4 11 -10z
m1657 -22 c-3 -8 -6 -5 -6 6 -1 11 2 17 5 13 3 -3 4 -12 1 -19z m-1827 -63 c0
-8 7 -15 15 -15 9 0 15 -9 15 -25 0 -20 -5 -25 -25 -25 -22 0 -25 4 -25 40 0
22 5 40 10 40 6 0 10 -7 10 -15z m1807 -7 c-3 -8 -6 -5 -6 6 -1 11 2 17 5 13
3 -3 4 -12 1 -19z m-7 -28 c0 -5 -5 -10 -11 -10 -5 0 -7 5 -4 10 3 6 8 10 11
10 2 0 4 -4 4 -10z m-835 -10 c3 -5 1 -10 -4 -10 -6 0 -11 5 -11 10 0 6 2 10
4 10 3 0 8 -4 11 -10z m910 -33 l90 -3 -97 -2 c-80 -2 -99 -5 -108 -19 -11
-17 -11 -17 -6 -1 5 16 -7 18 -117 21 l-122 3 128 2 c94 1 127 5 127 15 0 9 2
9 8 0 5 -8 42 -13 97 -16z m-890 3 c3 -5 1 -10 -4 -10 -6 0 -11 5 -11 10 0 6
2 10 4 10 3 0 8 -4 11 -10z m-35 -40 c0 -5 -4 -10 -10 -10 -5 0 -7 -7 -4 -15
5 -11 -1 -15 -21 -15 -23 0 -25 2 -15 15 6 8 9 19 5 25 -4 6 4 10 19 10 14 0
26 -4 26 -10z m283 -17 c-4 -16 -7 -36 -7 -45 0 -10 -4 -18 -9 -18 -5 0 -7 14
-3 31 3 17 6 38 6 45 0 8 5 14 10 14 6 0 8 -11 3 -27z m318 -43 l-10 -25 0 25
c-1 14 3 36 7 50 l7 25 3 -25 c2 -14 -2 -37 -7 -50z m75 54 c-3 -9 -6 -18 -6
-20 0 -2 -5 -4 -11 -4 -8 0 -9 4 0 13 6 8 8 17 4 20 -3 4 -1 7 6 7 8 0 11 -6
7 -16z m-182 -30 c24 -51 12 -55 -14 -5 -11 23 -17 41 -12 41 5 0 16 -16 26
-36z m359 -11 c3 -18 1 -33 -4 -33 -5 0 -9 5 -9 10 0 6 -8 11 -17 11 -17 1
-17 2 0 6 9 2 17 14 17 25 0 30 7 19 13 -19z m-551 -15 c-8 -8 -9 -4 -5 13 4
13 8 18 11 10 2 -7 -1 -18 -6 -23z m88 17 c0 -8 -4 -15 -10 -15 -5 0 -10 7
-10 15 0 8 5 15 10 15 6 0 10 -7 10 -15z m250 1 c0 -8 -4 -17 -9 -21 -6 -3 -9
4 -8 15 1 23 17 28 17 6z m119 -17 c-8 -4 -29 -21 -48 -38 -19 -17 -39 -28
-44 -24 -6 4 -2 10 9 14 10 4 35 24 54 44 21 24 36 33 38 25 3 -7 -2 -16 -9
-21z m157 -17 c-11 -10 -15 4 -8 28 l7 25 3 -23 c2 -13 1 -26 -2 -30z m-29 18
c-1 -22 -17 -28 -17 -7 0 12 9 27 16 27 2 0 2 -9 1 -20z m67 -19 c-9 -10 -26
18 -18 30 5 9 9 8 14 -7 4 -10 6 -21 4 -23z m-711 22 c-7 -2 -21 -2 -30 0 -10
3 -4 5 12 5 17 0 24 -2 18 -5z m-100 -34 c18 -18 19 -21 4 -15 -10 3 -26 6
-35 7 -11 0 -12 2 -4 6 6 2 10 9 6 14 -10 16 6 9 29 -12z m244 15 c-3 -3 -12
-4 -19 -1 -8 3 -5 6 6 6 11 1 17 -2 13 -5z m-337 -24 c-7 -5 -10 -16 -6 -25 4
-10 2 -15 -6 -13 -6 2 -15 13 -19 25 -6 17 -4 21 18 21 16 0 21 -3 13 -8z
m135 -20 c3 -5 1 -10 -4 -10 -6 0 -11 5 -11 10 0 6 2 10 4 10 3 0 8 -4 11 -10z
m-42 -7 c-7 -2 -21 -2 -30 0 -10 3 -4 5 12 5 17 0 24 -2 18 -5z m72 -13 c3 -5
1 -10 -4 -10 -6 0 -11 5 -11 10 0 6 2 10 4 10 3 0 8 -4 11 -10z m442 4 c-3 -3
-12 -4 -19 -1 -8 3 -5 6 6 6 11 1 17 -2 13 -5z m-37 -11 c0 -1 -12 -14 -26
-30 -23 -25 -24 -28 -7 -34 14 -6 11 -8 -11 -8 -28 -1 -28 0 -12 18 18 19 18
41 1 53 -5 4 5 6 22 5 18 -1 33 -3 33 -4z m-360 -7 c0 -11 -19 -15 -25 -6 -3
5 1 10 9 10 9 0 16 -2 16 -4z m25 -16 c3 -5 1 -10 -4 -10 -6 0 -11 5 -11 10 0
6 2 10 4 10 3 0 8 -4 11 -10z m375 -20 c0 -16 -4 -30 -10 -30 -5 0 -8 13 -7
30 3 39 17 39 17 0z m-335 10 c3 -5 2 -10 -4 -10 -5 0 -13 5 -16 10 -3 6 -2
10 4 10 5 0 13 -4 16 -10z m225 6 c0 -3 -4 -8 -10 -11 -5 -3 -10 -1 -10 4 0 6
5 11 10 11 6 0 10 -2 10 -4z m76 -21 c0 -14 -4 -25 -8 -25 -10 0 -10 13 -2 34
9 23 12 20 10 -9z m-266 5 c0 -5 -2 -10 -4 -10 -3 0 -8 5 -11 10 -3 6 -1 10 4
10 6 0 11 -4 11 -10z m115 0 c3 -5 -1 -10 -10 -10 -9 0 -13 5 -10 10 3 6 8 10
10 10 2 0 7 -4 10 -10z m42 4 c-3 -3 -12 -4 -19 -1 -8 3 -5 6 6 6 11 1 17 -2
13 -5z"/>
<path d="M3115 1934 c-20 -21 -19 -22 33 -16 35 3 41 7 31 18 -15 19 -44 18
-64 -2z"/>
<path d="M2910 1890 c0 -5 5 -10 10 -10 6 0 10 5 10 10 0 6 -4 10 -10 10 -5 0
-10 -4 -10 -10z"/>
<path d="M3130 1880 c-12 -8 -12 -10 3 -16 9 -3 25 -3 34 0 15 6 15 8 3 16 -8
6 -17 10 -20 10 -3 0 -12 -4 -20 -10z"/>
<path d="M3532 1807 c-28 -30 -28 -34 3 -39 23 -5 25 -2 25 28 0 19 -1 34 -3
34 -2 0 -13 -10 -25 -23z"/>
<path d="M3448 1739 c-22 -12 -26 -114 -5 -122 10 -4 10 -6 0 -6 -9 -1 -13
-21 -13 -65 l0 -65 43 -4 c36 -3 34 -4 -15 -5 l-58 -2 0 -60 c0 -33 4 -60 8
-60 12 0 112 104 112 117 0 6 8 14 18 16 11 3 7 5 -10 6 -38 1 -78 18 -78 33
0 7 17 30 38 51 20 21 33 38 27 37 -33 -7 -55 1 -55 20 0 30 28 37 46 11 31
-44 54 -12 54 75 0 34 0 34 -47 34 -27 0 -56 -5 -65 -11z"/>
<path d="M3400 1605 c0 -74 4 -125 10 -125 6 0 9 51 9 125 0 73 -4 125 -9 125
-6 0 -10 -52 -10 -125z"/>
<path d="M3570 1646 c0 -22 5 -25 43 -29 l42 -4 -47 -1 c-30 -1 -55 -9 -70
-22 -12 -11 -34 -28 -48 -39 -30 -24 -20 -39 33 -48 l37 -6 2 54 2 54 3 -47
c2 -27 8 -48 12 -48 16 0 99 99 88 104 -7 2 -2 5 11 5 39 2 24 20 -30 36 -69
20 -78 19 -78 -9z"/>
<path d="M3385 1270 c-3 -5 -1 -10 4 -10 6 0 11 5 11 10 0 6 -2 10 -4 10 -3 0
-8 -4 -11 -10z"/>
<path d="M3150 1545 l0 -65 65 0 65 0 0 65 0 65 -65 0 -65 0 0 -65z"/>
<path d="M2240 1228 c-11 -18 -20 -36 -20 -40 0 -5 145 -8 323 -8 l323 0 32
33 c18 18 32 36 32 40 0 4 -151 7 -335 7 l-335 0 -20 -32z"/>
<path d="M2127 1122 c-52 -53 -56 -62 -27 -62 12 0 33 -12 47 -26 22 -22 25
-31 19 -70 l-6 -44 171 0 c151 0 170 2 159 15 -17 20 -1 20 61 -2 l49 -18 127
128 128 127 -322 -1 c-240 0 -323 -3 -327 -12 -5 -9 -7 -9 -12 1 -9 19 -17 15
-67 -36z m230 -39 c-2 -16 -4 -3 -4 27 0 30 2 43 4 28 2 -16 2 -40 0 -55z
m205 60 c25 -22 24 -63 -1 -63 -10 0 -22 -7 -25 -16 -9 -23 -7 -36 4 -29 6 3
10 1 10 -4 0 -6 -13 -11 -29 -11 -28 0 -29 2 -24 34 6 38 -9 55 -32 36 -9 -8
-15 -8 -15 -2 0 6 6 12 13 15 9 3 9 7 -2 20 -8 10 -9 17 -3 17 6 0 14 -5 17
-10 5 -8 12 -7 23 2 14 10 15 10 5 -2 -15 -16 -17 -30 -5 -30 4 0 13 14 19 30
13 34 19 36 45 13z m58 -38 c0 -25 -4 -45 -10 -45 -5 0 -10 20 -10 45 0 25 5
45 10 45 6 0 10 -20 10 -45z m-192 2 c3 -23 0 -27 -22 -27 -29 0 -37 29 -8 31
15 1 14 2 -2 6 -15 4 -16 7 -5 14 21 13 34 5 37 -24z m-178 -43 c0 -24 -19
-54 -35 -54 -21 0 -26 15 -15 44 11 29 50 37 50 10z"/>
<path d="M2210 1029 c0 -5 5 -7 10 -4 6 3 10 8 10 11 0 2 -4 4 -10 4 -5 0 -10
-5 -10 -11z"/>
<path d="M1990 984 l-65 -64 102 0 c91 0 103 2 113 19 26 50 3 90 -60 104 -21
5 -36 -5 -90 -59z"/>
<path d="M2290 1436 c0 -10 9 -16 21 -16 24 0 21 23 -4 28 -10 2 -17 -3 -17
-12z"/>
<path d="M2120 1401 c0 -6 5 -13 10 -16 6 -3 10 1 10 9 0 9 -4 16 -10 16 -5 0
-10 -4 -10 -9z"/>
<path d="M2120 1355 c0 -8 2 -15 4 -15 2 0 6 7 10 15 3 8 1 15 -4 15 -6 0 -10
-7 -10 -15z"/>
<path d="M2021 1134 c0 -11 3 -14 6 -6 3 7 2 16 -1 19 -3 4 -6 -2 -5 -13z"/>
</g>
</svg>
